<?xml version="1.0" standalone="no"?>
<!DOCTYPE svg PUBLIC "-//W3C//DTD SVG 20010904//EN"
 "http://www.w3.org/TR/2001/REC-SVG-20010904/DTD/svg10.dtd">
<svg version="1.0" xmlns="http://www.w3.org/2000/svg"
 width="256.000000pt" height="256.000000pt" viewBox="0 0 256.000000 256.000000"
 preserveAspectRatio="xMidYMid meet">

<g transform="translate(0.000000,256.000000) scale(0.100000,-0.100000)"
fill="#000000" stroke="none">
<path d="M1115 2549 c-93 -13 -233 -50 -323 -87 -333 -137 -608 -430 -722
-770 -50 -152 -64 -242 -64 -412 0 -357 120 -649 373 -901 188 -189 397 -301
661 -355 121 -25 375 -25 490 -1 514 110 897 493 1007 1007 24 115 24 370 -1
490 -55 266 -165 472 -355 661 -188 189 -395 300 -656 354 -97 20 -314 27
-410 14z m-110 -649 l110 110 60 -60 60 -60 -110 -110 -110 -110 110 -110 110
-110 -60 -60 -60 -60 -110 110 -110 110 -105 -105 c-58 -58 -109 -105 -115
-105 -6 0 -35 25 -65 55 l-54 55 109 110 110 110 -110 110 -110 110 60 60 60
60 110 -110 110 -110 110 110z m744 96 c97 -26 174 -92 220 -186 35 -74 37
-200 4 -272 -29 -63 -97 -134 -158 -166 -72 -37 -188 -42 -267 -12 -75 28
-150 96 -185 168 -24 49 -28 69 -28 142 0 109 26 169 101 240 92 87 198 116
313 86z m146 -996 l-110 -110 110 -110 110 -110 -60 -60 -60 -60 -110 110
-110 110 -110 -110 -110 -110 -60 60 -60 60 110 110 110 110 -110 110 -109
110 54 55 c30 30 59 55 64 55 6 0 58 -47 116 -105 l105 -105 110 110 110 110
60 -60 60 -60 -110 -110z m-860 191 c76 -35 146 -111 175 -189 18 -46 21 -72
18 -132 -17 -296 -376 -423 -577 -205 -65 71 -85 124 -85 225 0 74 4 93 29
143 59 119 168 186 305 186 62 1 85 -4 135 -28z"/>
<path d="M1619 1830 c-78 -23 -124 -92 -116 -173 8 -86 74 -147 159 -147 27 0
62 7 78 15 67 35 104 127 81 198 -15 45 -68 93 -118 106 -43 12 -48 12 -84 1z"/>
<path d="M810 1028 c-46 -32 -71 -68 -77 -115 -22 -162 172 -253 281 -132 74
81 52 204 -45 254 -43 23 -120 19 -159 -7z"/>
</g>
</svg>
